<svg xmlns="http://www.w3.org/2000/svg" width="960" height="360" viewBox="0 0 960 360" role="img" aria-label="빌드별 총 처리량">
<rect width="960" height="360" rx="24" fill="#0f172a"/>
<rect x="20" y="20" width="920" height="320" rx="18" fill="#111827" stroke="#334155"/>
<text x="48" y="54" fill="#f8fafc" font-size="26" font-weight="700" font-family="-apple-system,BlinkMacSystemFont,Segoe UI,sans-serif">빌드별 총 처리량</text>
<text x="48" y="78" fill="#94a3b8" font-size="14" font-family="-apple-system,BlinkMacSystemFont,Segoe UI,sans-serif">profile-mix 6분 실행 결과, 전체 요청 기준</text>
<text x="48" y="111" fill="#e5e7eb" font-size="15" font-weight="600" font-family="-apple-system,BlinkMacSystemFont,Segoe UI,sans-serif">JVM</text>
<rect x="210" y="92" width="702" height="24" rx="12" fill="#1f2937"/>
<rect x="210" y="92" width="670.03" height="24" rx="12" fill="#2563eb"/>
<text x="870.03" y="109" fill="#f8fafc" font-size="14" font-weight="700" text-anchor="end" font-family="-apple-system,BlinkMacSystemFont,Segoe UI,sans-serif">439.88 RPS</text>
<text x="48" y="165" fill="#e5e7eb" font-size="15" font-weight="600" font-family="-apple-system,BlinkMacSystemFont,Segoe UI,sans-serif">JVM post-warmup</text>
<rect x="210" y="146" width="702" height="24" rx="12" fill="#1f2937"/>
<rect x="210" y="146" width="701.88" height="24" rx="12" fill="#059669"/>
<text x="901.88" y="163" fill="#f8fafc" font-size="14" font-weight="700" text-anchor="end" font-family="-apple-system,BlinkMacSystemFont,Segoe UI,sans-serif">460.79 RPS</text>
<text x="48" y="219" fill="#e5e7eb" font-size="15" font-weight="600" font-family="-apple-system,BlinkMacSystemFont,Segoe UI,sans-serif">Native</text>
<rect x="210" y="200" width="702" height="24" rx="12" fill="#1f2937"/>
<rect x="210" y="200" width="700.40" height="24" rx="12" fill="#ea580c"/>
<text x="900.40" y="217" fill="#f8fafc" font-size="14" font-weight="700" text-anchor="end" font-family="-apple-system,BlinkMacSystemFont,Segoe UI,sans-serif">459.82 RPS</text>
<text x="48" y="273" fill="#e5e7eb" font-size="15" font-weight="600" font-family="-apple-system,BlinkMacSystemFont,Segoe UI,sans-serif">PGO Native</text>
<rect x="210" y="254" width="702" height="24" rx="12" fill="#1f2937"/>
<rect x="210" y="254" width="702.00" height="24" rx="12" fill="#7c3aed"/>
<text x="902.00" y="271" fill="#f8fafc" font-size="14" font-weight="700" text-anchor="end" font-family="-apple-system,BlinkMacSystemFont,Segoe UI,sans-serif">460.87 RPS</text>
<text x="48" y="316" fill="#64748b" font-size="12" font-family="-apple-system,BlinkMacSystemFont,Segoe UI,sans-serif">Source: results/*_k6.html aggregate summaries</text>
</svg>
